<svg xmlns="http://www.w3.org/2000/svg" viewBox="0 0 96 96"><defs><linearGradient id="bg" x1="0" y1="0" x2="1" y2="1"><stop stop-color="#edf4ff"/><stop offset="1" stop-color="#e7f8ff"/></linearGradient></defs><circle cx="48" cy="48" r="47" fill="url(#bg)"/><circle cx="48" cy="36" r="16" fill="#f2c6a0"/><path d="M31 36c1-16 11-23 19-23 12 0 19 8 19 22-7-5-13-7-20-7-6 0-12 3-18 8z" fill="#3f302c"/><path d="M23 81c2-18 12-28 25-28s23 10 25 28" fill="#5a8eea"/><circle cx="42" cy="37" r="2.5" fill="#333"/><circle cx="54" cy="37" r="2.5" fill="#333"/><path d="M43 46c4 3 7 3 11 0" fill="none" stroke="#8f5141" stroke-width="2.5" stroke-linecap="round"/></svg>
