<svg xmlns="http://www.w3.org/2000/svg" viewBox="0 0 128 128"><defs><linearGradient id="bg" x1="0" y1="0" x2="1" y2="1"><stop stop-color="#e9f2ff"/><stop offset="1" stop-color="#d8fff1"/></linearGradient></defs><circle cx="64" cy="64" r="62" fill="url(#bg)"/><circle cx="64" cy="48" r="23" fill="#f2c6a0"/><path d="M39 47c2-23 18-32 31-32 17 0 28 12 29 30-7-6-15-9-25-9-12 0-23 4-35 11z" fill="#4b3a34"/><path d="M31 112c3-25 16-39 33-39s30 14 33 39" fill="#2f69c9"/><path d="M47 71c5 7 12 10 17 10s12-3 17-10" fill="none" stroke="#d89f78" stroke-width="4" stroke-linecap="round"/><circle cx="55" cy="49" r="3" fill="#333"/><circle cx="73" cy="49" r="3" fill="#333"/><path d="M57 60c5 4 9 4 14 0" fill="none" stroke="#8f5141" stroke-width="3" stroke-linecap="round"/></svg>
